<svg width="180" height="57" viewBox="0 0 180 57" fill="none" xmlns="http://www.w3.org/2000/svg">
<g filter="url(#filter0_d_400_62)">
<path d="M12.3188 23.5698C10.4244 32.2432 19.5155 39.0352 24.2978 40.3259H56.0789C60.8612 39.0352 69.9523 32.2432 68.0579 23.5698C60.8806 15.2577 67.1143 7.20712 55.8003 7.02637H23.9299C12.872 7.20303 21.3042 15.8189 12.3188 23.5698Z" fill="#A6E9C8"/>
<path d="M64.777 40.3259L66.9664 47.3942H64.777L60.9034 42.3678M14.926 40.3259L12.7366 47.3942H14.926L18.7996 42.3678M11.4222 18.9639C11.1415 13.3616 12.5338 2.12566 20.3482 2H58.8825C66.6969 2.12566 68.0892 13.3616 67.8085 18.9639M20.793 42.5249C15.0108 40.9542 4.01885 32.6883 6.3093 22.133H15.4037C16.4142 22.0283 18.3342 22.1644 17.93 23.5467C17.4247 25.2745 18.0984 29.5155 20.793 30.9291H59.2193C61.9139 29.5155 62.5876 25.2745 62.0823 23.5467C61.6781 22.1644 63.5981 22.0283 64.6086 22.133H73.703C75.9935 32.6883 65.0015 40.9542 59.2193 42.5249H20.793Z" stroke="#7B83AF" stroke-width="2.5" stroke-linecap="round" stroke-linejoin="round"/>
<path d="M85.4733 20.4341C85.1176 20.4341 84.8185 20.3135 84.576 20.0724C84.3335 19.8313 84.2122 19.5339 84.2122 19.1802V2.85546C84.2122 2.48572 84.3335 2.18832 84.576 1.96326C84.8185 1.72213 85.1176 1.60156 85.4733 1.60156C85.9584 1.60156 86.3302 1.82662 86.5889 2.27674L93.7917 16.6242L100.8 2.27674C101.059 1.82662 101.431 1.60156 101.916 1.60156C102.272 1.60156 102.571 1.72213 102.813 1.96326C103.056 2.18832 103.177 2.48572 103.177 2.85546V19.1802C103.177 19.5339 103.048 19.8313 102.789 20.0724C102.547 20.3135 102.256 20.4341 101.916 20.4341C101.56 20.4341 101.261 20.3135 101.019 20.0724C100.776 19.8313 100.655 19.5339 100.655 19.1802V7.19586L94.786 19.0837C94.5112 19.5017 94.1474 19.7107 93.6947 19.7107C93.1612 19.7107 92.7731 19.4615 92.5306 18.9632L86.7344 7.41288V19.1802C86.7344 19.5339 86.6132 19.8313 86.3707 20.0724C86.1281 20.3135 85.829 20.4341 85.4733 20.4341Z" fill="#7B83AF"/>
<path d="M107.577 20.1447C107.318 19.9197 107.197 19.6705 107.213 19.3972C107.229 19.1239 107.326 18.8748 107.504 18.6497L109.954 15.4667C109.113 15.2095 108.442 14.7514 107.941 14.0923C107.44 13.4332 107.189 12.6455 107.189 11.7292C107.189 10.8772 107.391 10.1136 107.795 9.4384C108.216 8.76323 108.781 8.23274 109.493 7.84692C110.22 7.44503 111.053 7.24409 111.991 7.24409H116.186C116.558 7.24409 116.857 7.35662 117.084 7.58167C117.31 7.80673 117.423 8.10413 117.423 8.47387V19.2284C117.407 19.5821 117.286 19.8714 117.059 20.0965C116.849 20.3216 116.558 20.4341 116.186 20.4341C115.847 20.4341 115.564 20.3216 115.338 20.0965C115.111 19.8554 114.998 19.558 114.998 19.2043V16.0213H112.718L109.541 19.9518C109.267 20.3055 108.927 20.4743 108.523 20.4582C108.119 20.4421 107.803 20.3376 107.577 20.1447ZM111.991 13.9958H114.998V9.53486H111.991C111.344 9.53486 110.778 9.74384 110.293 10.1618C109.808 10.5637 109.566 11.0861 109.566 11.7292C109.566 12.4043 109.808 12.9509 110.293 13.3689C110.778 13.7868 111.344 13.9958 111.991 13.9958Z" fill="#7B83AF"/>
<path d="M125.891 20.5305C124.872 20.5305 123.959 20.3778 123.15 20.0724C122.358 19.7509 121.727 19.3088 121.259 18.7462C120.806 18.1835 120.58 17.5405 120.58 16.8171C120.58 15.74 121.04 14.88 121.962 14.237C122.883 13.5939 124.169 13.1197 125.818 12.8143C126.917 12.5892 127.661 12.324 128.049 12.0185C128.437 11.697 128.631 11.2871 128.631 10.7888C128.631 10.2743 128.372 9.89656 127.855 9.65542C127.338 9.39821 126.74 9.26961 126.06 9.26961C125.495 9.26961 124.929 9.35803 124.363 9.53486C123.813 9.71169 123.352 9.9689 122.98 10.3065C122.738 10.5315 122.471 10.6843 122.18 10.7646C121.889 10.845 121.655 10.8289 121.477 10.7164C121.17 10.5235 120.976 10.2743 120.895 9.9689C120.83 9.66346 120.903 9.38214 121.113 9.12493C121.598 8.53013 122.277 8.0559 123.15 7.70224C124.039 7.3325 125.018 7.14763 126.085 7.14763C126.99 7.14763 127.815 7.29231 128.558 7.58167C129.302 7.85496 129.892 8.26489 130.329 8.81146C130.781 9.35803 131.008 10.0332 131.008 10.837C131.008 12.7017 129.472 13.9717 126.4 14.6469C125.123 14.9041 124.242 15.2095 123.757 15.5632C123.272 15.9008 123.037 16.3107 123.053 16.793C123.086 17.8379 124.031 18.3603 125.891 18.3603C126.731 18.3603 127.443 18.28 128.025 18.1192C128.623 17.9424 129.092 17.6771 129.431 17.3235C129.658 17.0823 129.917 16.9216 130.208 16.8412C130.499 16.7608 130.798 16.8492 131.105 17.1065C131.38 17.3315 131.517 17.5887 131.517 17.8781C131.517 18.1674 131.396 18.4407 131.153 18.6979C130.62 19.2284 129.876 19.6705 128.922 20.0242C127.968 20.3618 126.958 20.5305 125.891 20.5305Z" fill="#7B83AF"/>
<path d="M135.722 20.4582C135.366 20.4582 135.083 20.3457 134.873 20.1206C134.663 19.8795 134.558 19.5821 134.558 19.2284V8.47387C134.558 8.10413 134.663 7.80673 134.873 7.58167C135.083 7.35662 135.366 7.24409 135.722 7.24409C136.093 7.24409 136.393 7.35662 136.619 7.58167C136.861 7.80673 136.983 8.10413 136.983 8.47387V12.5008H138.826L143.215 7.6299C143.426 7.40484 143.717 7.27624 144.088 7.24409C144.477 7.21194 144.776 7.29231 144.986 7.48522C145.228 7.71028 145.366 7.96749 145.398 8.25685C145.43 8.53013 145.341 8.7793 145.131 9.00436L140.742 13.6824L145.398 18.6497C145.608 18.8587 145.713 19.1079 145.713 19.3972C145.713 19.6705 145.584 19.9197 145.325 20.1447C145.115 20.3376 144.816 20.4341 144.428 20.4341C144.056 20.418 143.765 20.3055 143.555 20.0965L138.559 14.7675H136.983V19.2284C136.983 19.5821 136.861 19.8795 136.619 20.1206C136.393 20.3457 136.093 20.4582 135.722 20.4582Z" fill="#7B83AF"/>
<path d="M153.065 20.5305C151.885 20.5305 150.826 20.2412 149.888 19.6625C148.951 19.0677 148.207 18.2719 147.657 17.2752C147.124 16.2625 146.857 15.1211 146.857 13.8511C146.857 12.5812 147.148 11.4398 147.73 10.4271C148.328 9.41429 149.129 8.61855 150.131 8.03983C151.15 7.44503 152.289 7.14763 153.55 7.14763C154.812 7.14763 155.943 7.44503 156.946 8.03983C157.948 8.61855 158.74 9.41429 159.322 10.4271C159.921 11.4398 160.22 12.5812 160.22 13.8511V19.2284C160.22 19.5821 160.098 19.8795 159.856 20.1206C159.63 20.3457 159.339 20.4582 158.983 20.4582C158.627 20.4582 158.328 20.3457 158.086 20.1206C157.859 19.8795 157.746 19.5821 157.746 19.2284V18.3362C157.18 19.0114 156.493 19.5499 155.685 19.9518C154.892 20.3376 154.019 20.5305 153.065 20.5305ZM153.55 18.3603C154.375 18.3603 155.111 18.1674 155.757 17.7816C156.404 17.3797 156.913 16.8412 157.285 16.166C157.657 15.4748 157.843 14.7032 157.843 13.8511C157.843 12.9831 157.657 12.2114 157.285 11.5363C156.913 10.845 156.404 10.3065 155.757 9.92067C155.111 9.51878 154.375 9.31784 153.55 9.31784C152.742 9.31784 152.006 9.51878 151.344 9.92067C150.697 10.3065 150.179 10.845 149.791 11.5363C149.42 12.2114 149.234 12.9831 149.234 13.8511C149.234 14.7032 149.42 15.4748 149.791 16.166C150.179 16.8412 150.697 17.3797 151.344 17.7816C152.006 18.1674 152.742 18.3603 153.55 18.3603Z" fill="#7B83AF"/>
<path d="M163.683 20.1447C163.424 19.9197 163.303 19.6705 163.319 19.3972C163.335 19.1239 163.432 18.8748 163.61 18.6497L166.06 15.4667C165.219 15.2095 164.548 14.7514 164.047 14.0923C163.546 13.4332 163.295 12.6455 163.295 11.7292C163.295 10.8772 163.497 10.1136 163.901 9.4384C164.322 8.76323 164.888 8.23274 165.599 7.84692C166.326 7.44503 167.159 7.24409 168.097 7.24409H172.292C172.664 7.24409 172.963 7.35662 173.19 7.58167C173.416 7.80673 173.529 8.10413 173.529 8.47387V19.2284C173.513 19.5821 173.392 19.8714 173.165 20.0965C172.955 20.3216 172.664 20.4341 172.292 20.4341C171.953 20.4341 171.67 20.3216 171.444 20.0965C171.217 19.8554 171.104 19.558 171.104 19.2043V16.0213H168.824L165.647 19.9518C165.373 20.3055 165.033 20.4743 164.629 20.4582C164.225 20.4421 163.909 20.3376 163.683 20.1447ZM168.097 13.9958H171.104V9.53486H168.097C167.45 9.53486 166.884 9.74384 166.399 10.1618C165.914 10.5637 165.672 11.0861 165.672 11.7292C165.672 12.4043 165.914 12.9509 166.399 13.3689C166.884 13.7868 167.45 13.9958 168.097 13.9958Z" fill="#7B83AF"/>
<path d="M85.2066 43.8776C84.8509 43.8776 84.5518 43.7651 84.3093 43.54C84.0829 43.2989 83.9697 43.0015 83.9697 42.6479V31.9174C83.9697 31.5477 84.0829 31.2503 84.3093 31.0252C84.5518 30.8002 84.8509 30.6876 85.2066 30.6876C85.7239 30.6876 86.1605 30.9368 86.5162 31.4351L91.5363 38.645L96.5564 31.4351C96.9121 30.9368 97.3487 30.6876 97.866 30.6876C98.2379 30.6876 98.537 30.8002 98.7633 31.0252C98.9897 31.2503 99.1029 31.5477 99.1029 31.9174V42.6479C99.1029 43.0015 98.9897 43.2989 98.7633 43.54C98.537 43.7651 98.2379 43.8776 97.866 43.8776C97.5103 43.8776 97.2112 43.7651 96.9687 43.54C96.7424 43.2989 96.6292 43.0015 96.6292 42.6479V34.9557L92.7974 40.333C92.3932 40.8956 91.9567 41.1769 91.4878 41.1769C91.0189 41.1609 90.5905 40.8795 90.2024 40.333L86.4434 34.9557V42.6479C86.4434 43.0015 86.3302 43.2989 86.1039 43.54C85.8775 43.7651 85.5784 43.8776 85.2066 43.8776Z" fill="#7B83AF"/>
<path d="M109.694 43.9741C108.352 43.9741 107.156 43.6928 106.105 43.1301C105.07 42.5514 104.253 41.7637 103.655 40.767C103.073 39.7542 102.782 38.5968 102.782 37.2947C102.782 35.9765 103.057 34.819 103.607 33.8224C104.173 32.8096 104.949 32.0219 105.935 31.4593C106.921 30.8805 108.053 30.5912 109.33 30.5912C110.591 30.5912 111.674 30.8725 112.58 31.4351C113.485 31.9817 114.172 32.7453 114.641 33.7259C115.126 34.6904 115.369 35.8077 115.369 37.0777C115.369 37.3831 115.264 37.6403 115.054 37.8493C114.843 38.0422 114.577 38.1387 114.253 38.1387H105.038C105.215 39.2479 105.725 40.1561 106.565 40.8635C107.422 41.5547 108.465 41.9003 109.694 41.9003C110.195 41.9003 110.704 41.8119 111.222 41.6351C111.755 41.4422 112.184 41.2252 112.507 40.984C112.75 40.8072 113.008 40.7188 113.283 40.7188C113.574 40.7027 113.825 40.7831 114.035 40.9599C114.31 41.201 114.455 41.4663 114.472 41.7557C114.488 42.045 114.358 42.2942 114.083 42.5032C113.534 42.9372 112.847 43.2909 112.022 43.5642C111.214 43.8374 110.438 43.9741 109.694 43.9741ZM109.33 32.6649C108.134 32.6649 107.172 32.9945 106.444 33.6536C105.717 34.3127 105.256 35.1647 105.062 36.2096H113.138C112.992 35.1807 112.596 34.3368 111.949 33.6777C111.303 33.0025 110.43 32.6649 109.33 32.6649Z" fill="#7B83AF"/>
<path d="M117.918 37.7528L117.942 35.028C117.958 33.1311 118.483 31.395 119.518 29.8195C120.569 28.2441 122.194 26.9661 124.393 25.9855L128.928 23.9841C129.251 23.8555 129.542 23.8394 129.801 23.9359C130.06 24.0163 130.246 24.2011 130.359 24.4905C130.472 24.7959 130.496 25.0773 130.431 25.3345C130.383 25.5756 130.149 25.7926 129.728 25.9855L124.805 28.2281C123.253 28.9354 122.081 29.8276 121.289 30.9046C120.496 31.9656 120.027 33.1713 119.882 34.5216C120.383 33.6053 121.078 32.8819 121.968 32.3514C122.873 31.821 123.908 31.5557 125.072 31.5557C126.236 31.5557 127.263 31.821 128.152 32.3514C129.057 32.8819 129.761 33.6134 130.262 34.5458C130.779 35.4621 131.038 36.5311 131.038 37.7528C131.038 38.9585 130.763 40.0356 130.213 40.984C129.664 41.9164 128.904 42.6479 127.934 43.1783C126.963 43.7088 125.848 43.9741 124.587 43.9741C123.293 43.9741 122.145 43.7088 121.143 43.1783C120.141 42.6479 119.356 41.9164 118.791 40.984C118.225 40.0356 117.934 38.9585 117.918 37.7528ZM124.587 41.8039C125.395 41.8039 126.098 41.6351 126.697 41.2975C127.311 40.9438 127.788 40.4616 128.128 39.8507C128.483 39.2398 128.661 38.5405 128.661 37.7528C128.661 36.9651 128.483 36.2739 128.128 35.6791C127.788 35.0682 127.311 34.594 126.697 34.2564C126.098 33.9027 125.395 33.7259 124.587 33.7259C123.746 33.7259 123.002 33.9027 122.356 34.2564C121.709 34.594 121.2 35.0682 120.828 35.6791C120.472 36.2739 120.294 36.9651 120.294 37.7528C120.294 38.5405 120.472 39.2398 120.828 39.8507C121.2 40.4616 121.709 40.9438 122.356 41.2975C123.002 41.6351 123.746 41.8039 124.587 41.8039Z" fill="#7B83AF"/>
<path d="M140.956 43.9741C139.614 43.9741 138.418 43.6928 137.367 43.1301C136.332 42.5514 135.516 41.7637 134.917 40.767C134.335 39.7542 134.044 38.5968 134.044 37.2947C134.044 35.9765 134.319 34.819 134.869 33.8224C135.435 32.8096 136.211 32.0219 137.197 31.4593C138.183 30.8805 139.315 30.5912 140.592 30.5912C141.853 30.5912 142.937 30.8725 143.842 31.4351C144.747 31.9817 145.435 32.7453 145.903 33.7259C146.388 34.6904 146.631 35.8077 146.631 37.0777C146.631 37.3831 146.526 37.6403 146.316 37.8493C146.105 38.0422 145.839 38.1387 145.515 38.1387H136.3C136.478 39.2479 136.987 40.1561 137.828 40.8635C138.684 41.5547 139.727 41.9003 140.956 41.9003C141.457 41.9003 141.967 41.8119 142.484 41.6351C143.017 41.4422 143.446 41.2252 143.769 40.984C144.012 40.8072 144.27 40.7188 144.545 40.7188C144.836 40.7027 145.087 40.7831 145.297 40.9599C145.572 41.201 145.717 41.4663 145.734 41.7557C145.75 42.045 145.62 42.2942 145.346 42.5032C144.796 42.9372 144.109 43.2909 143.284 43.5642C142.476 43.8374 141.7 43.9741 140.956 43.9741ZM140.592 32.6649C139.396 32.6649 138.434 32.9945 137.706 33.6536C136.979 34.3127 136.518 35.1647 136.324 36.2096H144.4C144.254 35.1807 143.858 34.3368 143.211 33.6777C142.565 33.0025 141.692 32.6649 140.592 32.6649Z" fill="#7B83AF"/>
<path d="M154.758 30.7117C155.259 30.7117 155.631 30.977 155.873 31.5075L160.869 42.2862C161.015 42.6077 161.031 42.897 160.918 43.1542C160.804 43.3954 160.61 43.5802 160.336 43.7088C159.624 44.0304 159.099 43.8696 158.759 43.2266L154.806 34.3046L150.732 43.2266C150.586 43.532 150.368 43.733 150.077 43.8294C149.802 43.9098 149.495 43.8696 149.155 43.7088C148.848 43.5642 148.63 43.3713 148.501 43.1301C148.387 42.889 148.412 42.6077 148.573 42.2862L153.593 31.5075C153.836 30.977 154.224 30.7117 154.758 30.7117Z" fill="#7B83AF"/>
<path d="M170.01 44.0947C168.797 44.0947 167.738 43.8776 166.833 43.4436C165.944 43.0096 165.248 42.3987 164.747 41.611C164.262 40.8072 164.02 39.8668 164.02 38.7897V31.8933C164.052 31.5557 164.181 31.2744 164.408 31.0493C164.65 30.8082 164.933 30.6876 165.257 30.6876C165.612 30.6876 165.903 30.8082 166.13 31.0493C166.372 31.2744 166.493 31.5637 166.493 31.9174V34.6181H170.471C171.522 34.6181 172.459 34.803 173.284 35.1727C174.125 35.5264 174.787 36.0488 175.273 36.7401C175.758 37.4153 176 38.2271 176 39.1755C176 40.124 175.749 40.968 175.248 41.7074C174.763 42.4469 174.076 43.0337 173.187 43.4677C172.298 43.8857 171.239 44.0947 170.01 44.0947ZM169.986 41.828C171.02 41.828 171.885 41.611 172.581 41.1769C173.276 40.7268 173.623 40.0597 173.623 39.1755C173.623 38.3396 173.324 37.7207 172.726 37.3188C172.128 36.9008 171.376 36.6919 170.471 36.6919H166.493V38.7415C166.493 39.3202 166.647 39.8427 166.954 40.3089C167.261 40.775 167.674 41.1448 168.191 41.4181C168.725 41.6914 169.323 41.828 169.986 41.828Z" fill="#7B83AF"/>
</g>
<defs>
<filter id="filter0_d_400_62" x="0.749023" y="0.75" width="179.251" height="55.8942" filterUnits="userSpaceOnUse" color-interpolation-filters="sRGB">
<feFlood flood-opacity="0" result="BackgroundImageFix"/>
<feColorMatrix in="SourceAlpha" type="matrix" values="0 0 0 0 0 0 0 0 0 0 0 0 0 0 0 0 0 0 127 0" result="hardAlpha"/>
<feOffset dy="4"/>
<feGaussianBlur stdDeviation="2"/>
<feColorMatrix type="matrix" values="0 0 0 0 0 0 0 0 0 0 0 0 0 0 0 0 0 0 0.25 0"/>
<feBlend mode="normal" in2="BackgroundImageFix" result="effect1_dropShadow_400_62"/>
<feBlend mode="normal" in="SourceGraphic" in2="effect1_dropShadow_400_62" result="shape"/>
</filter>
</defs>
</svg>
